<svg width="112" height="112" viewBox="0 0 112 112" fill="none" xmlns="http://www.w3.org/2000/svg">
<path d="M9.33333 56C9.33333 30.226 30.226 9.33337 56 9.33337C81.774 9.33337 102.667 30.226 102.667 56C102.667 81.774 81.774 102.667 56 102.667C30.226 102.667 9.33333 81.774 9.33333 56ZM50.6613 38.0567C49.7734 37.5645 48.7724 37.3126 47.7573 37.3259C46.7421 37.3391 45.748 37.617 44.8732 38.1322C43.9984 38.6474 43.2732 39.3819 42.7693 40.2633C42.2654 41.1446 42.0002 42.1422 42 43.1574V68.8427C42.0002 69.8579 42.2654 70.8555 42.7693 71.7368C43.2732 72.6182 43.9984 73.3527 44.8732 73.8679C45.748 74.3831 46.7421 74.661 47.7573 74.6742C48.7724 74.6875 49.7734 74.4356 50.6613 73.9434L77.5273 59.0614C78.0738 58.7585 78.5293 58.3149 78.8464 57.7766C79.1636 57.2382 79.3308 56.6248 79.3308 56C79.3308 55.3752 79.1636 54.7618 78.8464 54.2235C78.5293 53.6852 78.0738 53.2416 77.5273 52.9387L50.6613 38.0567Z" fill="#F6F4FF"/>
</svg>
